<svg xmlns="http://www.w3.org/2000/svg" viewBox="0 0 240 100" role="img" aria-label="Anvil">
  <!--
    Anvil — provider-agnostic Rust AI agent runtime
    Logo lockup: icon (left) + wordmark (right)
    Palette: #2D3748 body, #4A5568 face, #718096 highlights

    Icon anatomy (scaled to fit left 80px, centered vertically in 100px):
      - Top face: flat work surface
      - Horn: left-pointing taper off the table
      - Table body: hexagonal platform
      - Waist: trapezoid taper
      - Feet: two rectangular feet
      - Hardy hole: small cutout in the table
  -->

  <!-- === ICON (scale 0.72 of 100x100 base, translate to center in 100x100 left zone) === -->
  <g transform="translate(6, 4) scale(0.72)">

    <!-- Feet -->
    <rect x="18" y="83" width="25" height="9" rx="2" fill="#2D3748"/>
    <rect x="57" y="83" width="25" height="9" rx="2" fill="#2D3748"/>

    <!-- Waist -->
    <path d="M28 73 L72 73 L65 83 L35 83 Z" fill="#2D3748"/>

    <!-- Table body -->
    <path d="M20 57 L80 57 L80 65 L72 73 L28 73 L20 65 Z" fill="#2D3748"/>

    <!-- Table top face highlight -->
    <rect x="19" y="53" width="62" height="4.5" rx="1.5" fill="#4A5568"/>

    <!-- Hardy hole cutout -->
    <rect x="65" y="58.5" width="8" height="6" rx="1" fill="#718096" opacity="0.35"/>

    <!-- Horn -->
    <path d="M20 57 L20 65 L4 62 Z" fill="#2D3748"/>

    <!-- Horn tip edge highlight -->
    <path d="M20 57 L4 62" stroke="#718096" stroke-width="1" fill="none" opacity="0.6"/>

    <!-- Table edge highlight (right side) -->
    <path d="M80 57 L80 65 L72 73" stroke="#718096" stroke-width="1.5" fill="none" stroke-linecap="round" stroke-linejoin="round" opacity="0.5"/>

  </g>

  <!-- Divider -->
  <line x1="82" y1="18" x2="82" y2="82" stroke="#2D3748" stroke-width="1" opacity="0.15"/>

  <!--
    === WORDMARK: "anvil" ===
    Stroke-based geometric sans letterforms.
    Cap height: 30px. Baseline: y=62. Start: x=93.
    Stroke: width=4.5, round caps+joins.

    a — circle bowl + right descender stem
    n — left stem + arch + right stem
    v — chevron
    i — stem + dot
    l — tall stem
  -->
  <g fill="none" stroke="#2D3748" stroke-width="4.5" stroke-linecap="round" stroke-linejoin="round">

    <!-- a: bowl (center 104,52, r=10) open right side + descending stem -->
    <path d="M114 52 A10 10 0 1 0 114 54"/>
    <line x1="114" y1="42" x2="114" y2="63"/>

    <!-- n: left stem + arch + right stem -->
    <line x1="127" y1="42" x2="127" y2="63"/>
    <path d="M127 47 C127 39 135 39 135 39 C143 39 143 47 143 47 L143 63"/>

    <!-- v: two converging legs -->
    <polyline points="150,41 158,63 166,41"/>

    <!-- i: stem + dot -->
    <line x1="174" y1="49" x2="174" y2="63"/>
    <circle cx="174" cy="40" r="2.8" fill="#2D3748" stroke="none"/>

    <!-- l: tall stem -->
    <line x1="184" y1="30" x2="184" y2="63"/>

  </g>

</svg>
